<svg xmlns="http://www.w3.org/2000/svg" xmlns:xlink="http://www.w3.org/1999/xlink" width="100pt" height="64pt" version="1.1" viewBox="0 0 100 64"><defs><linearGradient id="linear0" x1="0" x2="467.82" y1="560.02" y2="560.02" gradientTransform="matrix(0.213654,0,0,-0.214743,0.0242619,152.261719)" gradientUnits="userSpaceOnUse"><stop offset="0" style="stop-color:#666766;stop-opacity:1"/><stop offset=".53" style="stop-color:#f6f6f6;stop-opacity:1"/><stop offset="1" style="stop-color:#787677;stop-opacity:1"/></linearGradient><linearGradient id="linear1" x1="246.45" x2="340.35" y1="522.13" y2="522.13" gradientTransform="matrix(0.213654,0,0,-0.214743,0.0242619,152.261719)" gradientUnits="userSpaceOnUse"><stop offset="0" style="stop-color:#666766;stop-opacity:1"/><stop offset="1" style="stop-color:#f0eeee;stop-opacity:1"/><stop offset="1" style="stop-color:#fff;stop-opacity:1"/></linearGradient></defs><g id="surface1"><path style="stroke:none;fill-rule:nonzero;fill:url(#linear0)" d="M 74.082031 28.046875 L 93.042969 0.0117188 L 79.859375 0.0117188 L 52.667969 42.960938 L 52.667969 0 L 41.601562 0 C 41.515625 0.105469 41.433594 0.21875 41.359375 0.335938 L 0.0234375 59.621094 L 13.519531 59.621094 L 41.601562 16.296875 L 41.601562 58.535156 C 41.601562 60.214844 42.027344 61.542969 42.910156 62.535156 C 43.792969 63.527344 44.914062 64 46.328125 64 C 47.542969 64.003906 48.746094 63.769531 49.871094 63.304688 C 50.984375 62.847656 51.921875 61.984375 52.683594 60.738281 L 67.5 37.914062 L 85 63.585938 L 99.976562 63.585938 Z M 74.082031 28.046875"/><path style="stroke:none;fill-rule:nonzero;fill:url(#linear1)" d="M 52.679688 42.957031 L 52.679688 60.730469 L 67.496094 37.902344 L 67.496094 19.546875 Z M 52.679688 42.957031"/></g></svg>